# xmcd
#
# Track frame offsets: 
#        150
#        26042
#        43230
#        67442
#        92267
#        115942
#        147755
#        170997
#
# Disc length: 2617 seconds
#
# Revision: 2
# Processed by: cddbd v1.5.2PL0 Copyright (c) Steve Scherf et al.
# Submitted via: ExactAudioCopy v0.95b3
#
DISCID=760a3708
DTITLE=Buddy Tate, Paul Quinichette, Jay McShann - Kansas City Joys
DYEAR=1976
DGENRE=Jazz
TTITLE0=Every Tub
TTITLE1=Swingin' the blues
TTITLE2=Kansas city joys
TTITLE3=Time out
TTITLE4='Fore day rider
TTITLE5=Tickle toe
TTITLE6=Sugar hips
TTITLE7=Sister pork chops
EXTD=
EXTT0=
EXTT1=
EXTT2=
EXTT3=
EXTT4=
EXTT5=
EXTT6=
EXTT7=
PLAYORDER=
